<svg width="101" height="28" viewBox="0 0 101 28" fill="none" xmlns="http://www.w3.org/2000/svg">
<rect y="0.00219727" width="27.0013" height="27.0013" rx="6.75032" fill="#493FC1"/>
<g clip-path="url(#clip0_438_153827)">
<path d="M16.1141 7.50964L13.5021 10.1179L10.8901 7.50964H6.00031V9.58948H9.91778L12.4024 12.0694V20.5127H14.6192V12.052L17.0864 9.58948H21.0039V7.50964H16.1141Z" fill="white"/>
</g>
<path d="M42.4937 22.0034H39.7059V9.72967H35.1953V7.23233H46.985V9.72967H42.4937V22.0034Z" fill="#282A30"/>
<path d="M49.1587 22.2164C48.1004 22.2164 47.2421 21.9389 46.5839 21.3839C45.9257 20.816 45.5966 20.0288 45.5966 19.0221C45.5966 17.938 46.0096 17.112 46.8356 16.5441C47.4293 16.1311 48.2746 15.8214 49.3716 15.6149L52.6046 15.0147C52.5788 14.3436 52.4046 13.8338 52.0819 13.4854C51.7593 13.1369 51.2753 12.9627 50.63 12.9627C50.1266 12.9627 49.6814 13.1111 49.2942 13.4079C48.9199 13.7048 48.6876 14.1049 48.5973 14.6082H46.0031C46.1838 13.4079 46.713 12.4916 47.5906 11.8592C48.4682 11.2268 49.4878 10.9106 50.6493 10.9106C51.3076 10.9106 51.9206 11.0074 52.4885 11.201C53.0563 11.3817 53.5403 11.6527 53.9404 12.0141C54.3405 12.3625 54.6309 12.7691 54.8116 13.2337C54.9923 13.6983 55.102 14.1629 55.1407 14.6276C55.1923 15.0922 55.2181 15.6665 55.2181 16.3505V22.0034H52.6046V20.5321C52.3336 21.0096 52.0045 21.371 51.6173 21.6162C51.0107 22.0163 50.1912 22.2164 49.1587 22.2164ZM49.7975 20.1643C50.3138 20.1643 50.7784 20.061 51.1914 19.8545C51.7335 19.5835 52.1077 19.2221 52.3142 18.7704C52.5207 18.3187 52.6369 17.7057 52.6627 16.9313L50.0686 17.454C49.3716 17.5831 48.8683 17.7896 48.5586 18.0735C48.3262 18.3058 48.2101 18.5897 48.2101 18.9253C48.2101 19.3254 48.3521 19.6351 48.636 19.8545C48.9328 20.061 49.32 20.1643 49.7975 20.1643Z" fill="#282A30"/>
<path d="M60.4804 22.0034H57.8669V7.23233H60.4804V15.1503L64.449 11.1429H67.7594L62.9583 15.8472L68.1079 22.0034H64.8943L60.4804 16.6022V22.0034Z" fill="#282A30"/>
<path d="M72.3999 22.0034C70.7092 22.0034 69.8638 21.2097 69.8638 19.6222V13.2337H68.257V11.1429H69.8638V7.23233H72.4773V11.1429H74.5681V13.2337H72.4773V18.8285C72.4773 19.1641 72.5289 19.4157 72.6322 19.5835C72.7483 19.7513 72.9936 19.8352 73.3678 19.8352H74.5488V22.0034H72.3999Z" fill="#282A30"/>
<path d="M79.4043 22.0034H76.7908V11.1429H79.4043V22.0034ZM78.1072 9.94262C77.6555 9.94262 77.2748 9.80711 76.965 9.53608C76.6553 9.26505 76.5004 8.90368 76.5004 8.45196C76.5004 8.02606 76.6553 7.67114 76.965 7.38721C77.2748 7.10327 77.6555 6.9613 78.1072 6.9613C78.546 6.9613 78.9203 7.10327 79.23 7.38721C79.5527 7.67114 79.714 8.02606 79.714 8.45196C79.714 8.89077 79.5592 9.25214 79.2494 9.53608C78.9397 9.80711 78.5589 9.94262 78.1072 9.94262Z" fill="#282A30"/>
<path d="M84.647 22.0034C83.821 22.0034 83.1951 21.8163 82.7692 21.442C82.3433 21.0548 82.1303 20.4482 82.1303 19.6222V7.23233H84.7438V18.8479C84.7438 19.2092 84.8083 19.4674 84.9374 19.6222C85.0794 19.7642 85.3117 19.8352 85.6343 19.8352H86.3312V22.0034H84.647Z" fill="#282A30"/>
<path d="M93.1492 22.2164C92.0521 22.2164 91.0842 21.9776 90.2453 21.5001C89.4064 21.0225 88.7546 20.3643 88.29 19.5254C87.8383 18.6736 87.6124 17.7121 87.6124 16.6409C87.6124 15.6471 87.8125 14.7179 88.2126 13.8532C88.6256 12.9756 89.2386 12.2657 90.0517 11.7237C90.8777 11.1816 91.8844 10.9106 93.0717 10.9106C94.0526 10.9106 94.956 11.1171 95.782 11.5301C96.608 11.9302 97.2727 12.5561 97.776 13.4079C98.2794 14.2468 98.531 15.2922 98.531 16.5441V17.1055H90.3227C90.3614 17.5572 90.497 17.9831 90.7293 18.3832C90.9874 18.8866 91.3294 19.2802 91.7553 19.5642C92.1941 19.8352 92.691 19.9707 93.246 19.9707C93.8396 19.9707 94.3494 19.8223 94.7753 19.5254C95.2012 19.2157 95.5045 18.822 95.6852 18.3445H98.3568C98.0083 19.4932 97.3953 20.4289 96.5177 21.1516C95.6401 21.8614 94.5172 22.2164 93.1492 22.2164ZM95.8595 15.1503C95.8078 14.7373 95.6723 14.4017 95.4529 14.1436C95.2077 13.7693 94.885 13.4854 94.485 13.2918C94.0849 13.0853 93.6396 12.982 93.1492 12.982C92.6587 12.982 92.2135 13.0788 91.8134 13.2724C91.4262 13.466 91.11 13.7564 90.8648 14.1436C90.6325 14.4275 90.4905 14.7631 90.4389 15.1503H95.8595Z" fill="#282A30"/>
<defs>
<clipPath id="clip0_438_153827">
<rect width="15.0036" height="13.0031" fill="white" transform="translate(6.00031 7.50964)"/>
</clipPath>
</defs>
</svg>
