<svg width="101" height="28" viewBox="0 0 101 28" fill="none" xmlns="http://www.w3.org/2000/svg">
<rect width="27.0013" height="27.0013" rx="6.75032" fill="#E2F999"/>
<g clip-path="url(#clip0_413_360944)">
<path d="M16.1141 7.50134L13.5021 10.1096L10.8901 7.50134H6.00031V9.58118H9.91778L12.4024 12.0611V20.5044H14.6192V12.0437L17.0864 9.58118H21.0039V7.50134H16.1141Z" fill="#493FC1"/>
</g>
<path d="M42.4937 22.001H39.7059V9.72723H35.1953V7.22989H46.985V9.72723H42.4937V22.001Z" fill="white"/>
<path d="M49.1587 22.2139C48.1004 22.2139 47.2421 21.9364 46.5839 21.3815C45.9257 20.8136 45.5966 20.0263 45.5966 19.0197C45.5966 17.9355 46.0096 17.1095 46.8356 16.5417C47.4293 16.1287 48.2746 15.8189 49.3716 15.6124L52.6046 15.0123C52.5788 14.3412 52.4046 13.8314 52.0819 13.4829C51.7593 13.1345 51.2753 12.9602 50.63 12.9602C50.1266 12.9602 49.6814 13.1086 49.2942 13.4055C48.9199 13.7023 48.6876 14.1024 48.5973 14.6058H46.0031C46.1838 13.4055 46.713 12.4891 47.5906 11.8567C48.4682 11.2243 49.4878 10.9081 50.6493 10.9081C51.3076 10.9081 51.9206 11.0049 52.4885 11.1985C53.0563 11.3792 53.5403 11.6502 53.9404 12.0116C54.3405 12.3601 54.6309 12.7666 54.8116 13.2312C54.9923 13.6959 55.102 14.1605 55.1407 14.6251C55.1923 15.0897 55.2181 15.6641 55.2181 16.3481V22.001H52.6046V20.5297C52.3336 21.0072 52.0045 21.3686 51.6173 21.6138C51.0107 22.0139 50.1912 22.2139 49.1587 22.2139ZM49.7975 20.1618C50.3138 20.1618 50.7784 20.0586 51.1914 19.8521C51.7335 19.5811 52.1077 19.2197 52.3142 18.768C52.5207 18.3163 52.6369 17.7032 52.6627 16.9289L50.0686 17.4516C49.3716 17.5806 48.8683 17.7871 48.5586 18.0711C48.3262 18.3034 48.2101 18.5873 48.2101 18.9229C48.2101 19.3229 48.3521 19.6327 48.636 19.8521C48.9328 20.0586 49.32 20.1618 49.7975 20.1618Z" fill="white"/>
<path d="M60.4804 22.001H57.8669V7.22989H60.4804V15.1478L64.449 11.1405H67.7594L62.9583 15.8447L68.1079 22.001H64.8943L60.4804 16.5998V22.001Z" fill="white"/>
<path d="M72.3999 22.001C70.7092 22.001 69.8638 21.2072 69.8638 19.6198V13.2312H68.257V11.1405H69.8638V7.22989H72.4773V11.1405H74.5681V13.2312H72.4773V18.8261C72.4773 19.1616 72.5289 19.4133 72.6322 19.5811C72.7483 19.7488 72.9936 19.8327 73.3678 19.8327H74.5488V22.001H72.3999Z" fill="white"/>
<path d="M79.4043 22.001H76.7908V11.1405H79.4043V22.001ZM78.1072 9.94018C77.6555 9.94018 77.2748 9.80467 76.965 9.53364C76.6553 9.26261 76.5004 8.90124 76.5004 8.44952C76.5004 8.02362 76.6553 7.6687 76.965 7.38476C77.2748 7.10083 77.6555 6.95886 78.1072 6.95886C78.546 6.95886 78.9203 7.10083 79.23 7.38476C79.5527 7.6687 79.714 8.02362 79.714 8.44952C79.714 8.88833 79.5592 9.2497 79.2494 9.53364C78.9397 9.80467 78.5589 9.94018 78.1072 9.94018Z" fill="white"/>
<path d="M84.647 22.001C83.821 22.001 83.1951 21.8138 82.7692 21.4396C82.3433 21.0524 82.1303 20.4458 82.1303 19.6198V7.22989H84.7438V18.8454C84.7438 19.2068 84.8083 19.4649 84.9374 19.6198C85.0794 19.7618 85.3117 19.8327 85.6343 19.8327H86.3312V22.001H84.647Z" fill="white"/>
<path d="M93.1492 22.2139C92.0521 22.2139 91.0842 21.9752 90.2453 21.4976C89.4064 21.0201 88.7546 20.3619 88.29 19.523C87.8383 18.6712 87.6124 17.7097 87.6124 16.6385C87.6124 15.6447 87.8125 14.7155 88.2126 13.8507C88.6256 12.9731 89.2386 12.2633 90.0517 11.7212C90.8777 11.1792 91.8844 10.9081 93.0717 10.9081C94.0526 10.9081 94.956 11.1146 95.782 11.5276C96.608 11.9277 97.2727 12.5537 97.776 13.4055C98.2794 14.2444 98.531 15.2898 98.531 16.5417V17.1031H90.3227C90.3614 17.5548 90.497 17.9807 90.7293 18.3808C90.9874 18.8841 91.3294 19.2778 91.7553 19.5617C92.1941 19.8327 92.691 19.9683 93.246 19.9683C93.8396 19.9683 94.3494 19.8198 94.7753 19.523C95.2012 19.2132 95.5045 18.8196 95.6852 18.3421H98.3568C98.0083 19.4907 97.3953 20.4264 96.5177 21.1492C95.6401 21.859 94.5172 22.2139 93.1492 22.2139ZM95.8595 15.1478C95.8078 14.7348 95.6723 14.3993 95.4529 14.1411C95.2077 13.7669 94.885 13.4829 94.485 13.2893C94.0849 13.0828 93.6396 12.9796 93.1492 12.9796C92.6587 12.9796 92.2135 13.0764 91.8134 13.27C91.4262 13.4636 91.11 13.7539 90.8648 14.1411C90.6325 14.4251 90.4905 14.7606 90.4389 15.1478H95.8595Z" fill="white"/>
<defs>
<clipPath id="clip0_413_360944">
<rect width="15.0036" height="13.0031" fill="white" transform="translate(6.00031 7.50134)"/>
</clipPath>
</defs>
</svg>
